<?xml version="1.0" encoding="utf-8"?>
<!-- Generator: Adobe Illustrator 24.2.0, SVG Export Plug-In . SVG Version: 6.00 Build 0)  -->
<svg version="1.1" xmlns="http://www.w3.org/2000/svg" xmlns:xlink="http://www.w3.org/1999/xlink" x="0px" y="0px"
	 viewBox="0 0 500 500" style="enable-background:new 0 0 500 500;" xml:space="preserve">
<style type="text/css">
	.st0{fill:#BA9BC9;}
	.st1{fill:#4D4D4D;}
	.st2{fill:#FFFFFF;}
	.st3{fill:#1FC9FF;}
	.st4{fill:#1FA2FF;}
	.st5{fill:#9B9B9B;}
	.st6{fill:#C1C1C1;}
	.st7{fill:none;stroke:#4D4D4D;stroke-miterlimit:10;}
</style>
<g id="Слой_6">
	<circle class="st0" cx="263.85" cy="255.16" r="226.59"/>
</g>
<g id="Слой_5">
	<path class="st1" d="M332.96,295.99l-1.32,1.26c-4.82,2.96-8.3,1.7-10.65,4.72l-1.82,1.32c-1.58,1.15-3.03,2.46-4.33,3.93
		l-1.82,2.06c-0.9,1.02-1.56,2.22-1.94,3.53l-0.14,0.49c-0.95,3.31-0.99,6.81-0.1,10.13l-3.49,4.42l-1.58-0.19
		c-7.98-0.61-18.55,6.95-22.52,4.18c-24.21-16.92-42.23-29.18-62.44-45.99c0,0,1.1-2.11-2.18-11.98c-0.27-0.8-2.36-13.56,0.64-18.79
		c6.45-11.27,1.07-11.96,10.24-23.16c5.06-6.18,12.99-5.61,19.53-20.87c4.42-10.31,6.38-12.74,8.72-18.92
		c2.65-7-8.36-17.18-12.34-13.46c-3.73,3.49-7.1,11.28-15.31,17.5c-9.74,7.39-19.35,8.16-24.51,14.94
		c-19.2,25.23-43.87,56.71-61.57,91.15c-1.98,3.86-7.44,8.06-14.29,12.66c-9.92,6.65-18.61,8.79-32.79,12.11
		c-20.67,4.83-35.09,8.21-44.47,10.36c12.45,31.94,31.94,60.36,56.55,83.36c0.29,0.22,0.58,0.44,0.87,0.66
		c0,0,16.28-8.56,35.67-8.41c18.37,0.15,22.92,1.67,35.76-0.56c34.16-5.95,77.91-36.62,88.73-29.35c1.9,1.28,12.73,3.01,25.07-2.88
		c5.15-2.45,10.88-12.15,8.6-18.06c-0.92-2.38-2.73-3-2.51-4.72c0.52-3.9,10.03-2.6,16.09-8.65c5.28-5.26,4.38-8.08,6.49-16.46
		c9.59-3.92,15.1-5.2,19-12.28c5.12-9.3-1.5-20.54-5.86-25.17C332.17,289.79,335.19,291.04,332.96,295.99z"/>
	<path class="st1" d="M363.59,254.89c2.99,2.37,4.83,3.1,6.67,3.89c3.01,1.3,4.85,1.53,6.67,3.42c1.4,1.46,2.36,3.44,2.57,5.05
		c0.8,6.22-8.32,14.87-15.33,15.43c-9.04,0.72-18.47,1.99-22.71,0.76L363.59,254.89z"/>
</g>
<g id="Слой_3">
	<g id="XMLID_2_">
		<g>
			<path class="st2" d="M409.4,154.86l-7.24,10.52l-11.31-8.92c-0.17-0.34-0.35-0.69-0.55-1.02c-0.13-0.27-0.28-0.54-0.44-0.79
				c-0.03-0.05-0.06-0.1-0.09-0.15c-0.14-0.23-0.3-0.49-0.46-0.73c-0.17-0.27-0.34-0.54-0.55-0.8c-0.13-0.19-0.26-0.39-0.4-0.56
				c-0.18-0.25-0.37-0.51-0.57-0.74c-0.06-0.09-0.13-0.18-0.19-0.26c-0.41-0.51-0.85-0.99-1.29-1.48c-0.23-0.24-0.45-0.47-0.69-0.7
				c-0.18-0.17-0.34-0.33-0.51-0.48c-0.13-0.13-0.27-0.25-0.41-0.37c-0.18-0.17-0.36-0.32-0.55-0.48c-0.25-0.21-0.5-0.42-0.76-0.63
				c-0.34-0.26-0.71-0.53-1.08-0.77c-0.1-0.07-0.22-0.14-0.33-0.21c-0.04-0.04-0.1-0.07-0.15-0.1c-0.27-0.16-0.53-0.31-0.8-0.45
				c-0.76-0.41-1.56-0.76-2.38-1.03c-0.15-0.06-0.29-0.1-0.43-0.15c-0.14-0.05-0.27-0.09-0.42-0.12c-0.12-0.05-0.25-0.08-0.38-0.1
				c-0.81-0.22-1.62-0.36-2.46-0.42l-35.3-27.88l7.67-9.72l0.23-0.28L409.4,154.86z"/>
			<path class="st2" d="M402.16,165.38l-4.85,48.79l-66.77-51.47l4.86-26.34l3.6-19.49l0.66-0.84l35.3,27.88
				c-0.2-0.02-0.39-0.03-0.59-0.03c-0.28-0.01-0.54-0.01-0.81,0c-0.11,0-0.22,0.01-0.33,0.01c-3.76-1.77-14.59,4.25-14.59,4.25
				c-12.4,11.05,2.86,39.01,17.22,38.39c0,0,14.34-3.9,15.12-8.1c0.88-0.96,1.54-2.18,1.93-3.6c0.27-1,0.47-1.99,0.62-3
				c0.03-0.22,0.06-0.43,0.08-0.66c0.08-0.66,0.12-1.31,0.13-1.97c0.02-0.25,0.02-0.49,0-0.76c0.01-0.22,0.01-0.43,0-0.65
				c-0.01-0.29-0.02-0.57-0.04-0.87c0-0.17-0.01-0.37-0.04-0.56c-0.02-0.31-0.05-0.63-0.1-0.95c-0.05-0.43-0.11-0.86-0.18-1.28
				c-0.04-0.31-0.1-0.59-0.16-0.87c-0.02-0.08-0.03-0.15-0.05-0.23c-0.06-0.27-0.12-0.53-0.19-0.81c-0.31-1.25-0.71-2.5-1.21-3.7
				c-0.09-0.26-0.2-0.52-0.32-0.77c-0.19-0.45-0.4-0.88-0.61-1.31L402.16,165.38z"/>
			<path class="st2" d="M397.31,214.17l-31.56,40.34c-0.75-0.27-2.65-1-3.95-1.67c-3.6-1.83-3.83-2.95-5.99-3.82
				c-2.6-1.06-3.03,0.25-7.96-0.43c-2.95-0.4-4.47-0.6-5.95-1.76c-2.13-1.66-1.5-3.16-3.91-5.57c-0.84-0.84-2.84-2.83-5.34-2.85
				c-3.62-0.05-5.92,4.05-6.21,4.56c-1.91,3.52-0.09,5.28-1.94,9.96c-0.49,1.26-1.49,3.7-3.97,5.65c-1.36,1.05-3.68,2.88-6.8,2.29
				c-3.68-0.69-5.44-4.16-5.55-4.39c-1.57-3.22-0.23-6.24,0.16-7.08c1.03-2.35,2.75-3.5,6.17-5.72c4.83-3.15,6.34-2.87,9.43-5.64
				c2.02-1.81,3.68-3.36,3.95-5.9c0.26-2.57-0.97-5.68-3.37-7.15c-2.2-1.37-4.69-0.95-7.44-0.48c-4.57,0.79-5.9,2.54-7.67,1.61
				c-1.46-0.76-1.94-2.67-2.56-5.17c-1.07-4.3,0.22-5.29-1.02-7.11c-1.64-2.42-5.57-3.08-8.14-3.5c-2.36-0.39-2.63,0.19-3.29-0.22
				l36.16-47.42L397.31,214.17z"/>
			<path class="st3" d="M393.67,166.38c0.02,0.19,0.04,0.39,0.04,0.56c0.03,0.3,0.04,0.58,0.04,0.87c0.01,0.22,0.01,0.44,0,0.65
				c0.01,0.26,0,0.51,0,0.76c-0.01,0.66-0.05,1.31-0.13,1.97c-0.03,0.23-0.05,0.44-0.08,0.66c-0.14,1-0.35,2-0.62,3
				c-0.4,1.42-1.05,2.63-1.93,3.6c-3.12,3.41-9.02,3.63-15.5-1.48c-8.3-6.56-14.62-21.15-9.52-28.94c0.54-0.82,1.14-1.5,1.81-2.05
				c0.16-0.14,0.32-0.26,0.48-0.38c0.62-0.45,1.27-0.8,1.96-1.06c0.1-0.03,0.2-0.07,0.3-0.11c0.12-0.04,0.24-0.07,0.36-0.12
				c0.18-0.06,0.37-0.11,0.56-0.15c0.41-0.1,0.81-0.16,1.23-0.22c0.18-0.02,0.38-0.04,0.57-0.05c0.11,0,0.22-0.01,0.33-0.01
				c0.27-0.01,0.53-0.01,0.81,0c0.2,0.01,0.39,0.02,0.59,0.03c0.83,0.06,1.65,0.19,2.46,0.42c0.13,0.02,0.26,0.05,0.38,0.1
				c0.15,0.03,0.28,0.07,0.42,0.12c0.15,0.05,0.28,0.09,0.43,0.15c0.82,0.28,1.62,0.62,2.38,1.03c0.28,0.14,0.54,0.29,0.8,0.45
				c0.05,0.03,0.11,0.06,0.15,0.1c0.12,0.07,0.24,0.14,0.33,0.21c0.38,0.24,0.75,0.51,1.08,0.77c0.26,0.21,0.51,0.42,0.76,0.63
				c0.19,0.16,0.37,0.31,0.55,0.48c0.13,0.12,0.27,0.24,0.41,0.37c0.16,0.15,0.33,0.31,0.51,0.48c0.23,0.22,0.45,0.45,0.69,0.7
				c0.44,0.49,0.88,0.97,1.29,1.48c0.07,0.08,0.13,0.17,0.19,0.26c0.2,0.23,0.39,0.49,0.57,0.74c0.14,0.18,0.27,0.36,0.4,0.56
				c0.2,0.26,0.37,0.53,0.55,0.8c0.16,0.24,0.32,0.5,0.46,0.73c0.03,0.05,0.06,0.1,0.09,0.15c0.15,0.26,0.3,0.53,0.44,0.79
				c0.2,0.32,0.38,0.68,0.55,1.02c0.21,0.43,0.42,0.86,0.61,1.31c0.12,0.25,0.23,0.51,0.32,0.77c0.5,1.2,0.9,2.44,1.21,3.7
				c0.07,0.28,0.13,0.54,0.19,0.81c0.02,0.08,0.03,0.15,0.05,0.23c0.06,0.28,0.12,0.56,0.16,0.87c0.08,0.42,0.14,0.85,0.18,1.28
				C393.61,165.74,393.65,166.07,393.67,166.38z"/>
			<path class="st4" d="M375.48,176.96c6.49,5.11,12.38,4.89,15.5,1.48c-0.79,4.2-15.12,8.1-15.12,8.1
				c-14.36,0.62-29.62-27.34-17.22-38.39c0,0,10.83-6.02,14.59-4.25c-0.19,0.01-0.38,0.03-0.57,0.05c-0.42,0.06-0.82,0.12-1.23,0.22
				c-0.19,0.04-0.38,0.09-0.56,0.15c-0.12,0.04-0.24,0.07-0.36,0.12c-0.1,0.03-0.2,0.07-0.3,0.11c-0.69,0.27-1.34,0.61-1.96,1.06
				c-0.16,0.11-0.33,0.24-0.48,0.38c-0.67,0.55-1.28,1.24-1.81,2.05C360.86,155.81,367.17,170.4,375.48,176.96z"/>
			<path class="st3" d="M285.47,272.98c0.14-0.27,1.05-2.28,1.21-2.65c0.04-0.07,0.05-0.08,0,0c-0.09,0.19-0.36,0.78-0.96,2.04
				c0.25-0.58,0.7-1.58,1.42-3.19c0.18-0.42,0.54-1.24,0.32-2.22c-0.15-0.66-0.59-1.5-1.24-1.89c-1.14-0.66-2.5,0.45-6.05,2.11
				c-3.98,1.85-6.46,4.02-6.95,3.54c-0.26-0.27,0.39-1,1.17-2.7c0.18-0.4,1.86-4.09,1.55-8.57c-0.09-1.41-0.18-2.45-0.85-2.81
				c-0.97-0.53-2.51,0.7-4,1.91c-8.38,6.71-10.09,7.71-9.71,9.46c0.31,1.48,1.97,2.71,2.23,2.89c0.77,0.56,1.71,1.25,2.61,1.05
				c1.42-0.33,1.23-2.53,3.16-5.51c1.24-1.93,2.72-3.14,2.93-2.97c0.47,0.36-4.04,8.07-2.92,10.31c0.36,0.71,0.94,1.19,0.94,1.19
				c0.09,0.07,0.81,0.64,1.66,0.76c0.94,0.11,1.64-0.39,2.74-1.22c2.08-1.57,2.97-2.39,4.31-3.35c0.91-0.66,2.72-1.96,3.07-1.64
				c0.07,0.07,0.06,0.22-0.83,1.95c-0.99,1.92-2.04,2.87-3.74,5.5c-0.93,1.43-1.05,1.83-0.97,2.28c0.24,1.3,1.94,2.07,2.89,2.51
				c0.47,0.22,0.79,0.3,1.13,0.21c0.7-0.18,0.99-1.07,1.09-1.38c0.57-1.7,1.69-3.12,2.44-4.74c0.56-1.24,1.02-2.21,1.37-2.99
				C285.49,272.91,285.47,272.95,285.47,272.98z M365.74,254.51l-40.97,52.36c-0.94,0.02-1.89,0.2-2.83,0.55
				c-6.31,2.32-12.19,9.81-10.68,16.72l-2.77,3.55c-0.13,0.03-0.27,0.07-0.41,0.1c-5.84-0.55-12.3,1.75-17.55,3.86
				c-1.86,0.75-3.97,1.74-5.92,2.99c-1.24,0.66-2.35,1.5-3.3,2.45c-0.92,0.76-1.69,1.7-2.25,2.74l-0.01-0.01
				c-0.33-0.12-0.67-0.24-1.02-0.39c-4.46-1.88-7.24-5.09-8.36-6.37c-3.85-4.43-2.66-6.29-5.84-8.67c-1.32-1-1.78-0.87-10.23-3.24
				c-6.35-1.78-6.99-2.1-7.7-2.58c-3.91-2.62-2.5-4.91-6.35-8.17c-3.87-3.29-10.66-5.53-13.66-4.92c-0.36,0.07-1.76,0.14-2.79-0.51
				c-0.28-0.18-0.47-0.36-0.61-0.53l71.89-94.3c0.66,0.41,0.93-0.17,3.29,0.22c2.57,0.43,6.5,1.08,8.14,3.5
				c1.24,1.82-0.05,2.8,1.02,7.11c0.62,2.51,1.1,4.42,2.56,5.17c1.77,0.93,3.1-0.82,7.67-1.61c2.75-0.47,5.25-0.89,7.44,0.48
				c2.4,1.47,3.63,4.58,3.37,7.15c-0.26,2.54-1.92,4.09-3.95,5.9c-3.09,2.76-4.6,2.49-9.43,5.64c-3.41,2.23-5.14,3.38-6.17,5.72
				c-0.39,0.84-1.73,3.86-0.16,7.08c0.11,0.22,1.87,3.7,5.55,4.39c3.12,0.58,5.44-1.24,6.8-2.29c2.48-1.95,3.48-4.4,3.97-5.65
				c1.85-4.68,0.03-6.45,1.94-9.96c0.29-0.51,2.59-4.61,6.21-4.56c2.5,0.03,4.5,2.02,5.34,2.85c2.41,2.4,1.78,3.91,3.91,5.57
				c1.48,1.16,3,1.36,5.95,1.76c4.92,0.68,5.36-0.63,7.96,0.43c2.16,0.87,2.39,1.98,5.99,3.82
				C363.1,253.51,364.99,254.24,365.74,254.51z M323.91,294.34c0.1-0.37-0.47-0.86-1.58-1.81c-1.07-0.9-1.61-1.35-2.26-1.44
				c-0.52-0.07-0.86,0.06-1.93,0.5c-2.6,1.07-3.53,1.41-4.37,1.53c-0.11,0.02-0.23,0.03-0.35,0.05c-0.49,0.05-1.99,0.19-2.15-0.24
				c-0.16-0.45,1.23-1.45,2.28-1.99c0.72-0.37,1.17-0.46,1.81-0.99c0.42-0.35,0.88-0.74,0.97-1.18c0.3-1.45-3.12-4.43-5.13-3.8
				c-1.89,0.6-0.51,3.75-3.35,6.69c-1.97,2.02-4.25,3.8-4.25,3.8c-0.68,0.51-1.56,1.16-1.45,1.91c0.08,0.4,0.36,0.49,1.63,1.53
				c2.4,1.99,2.48,2.07,2.48,2.07c0.6,0.5,0.86,0.76,1.18,0.7c0.47-0.07,0.7-0.66,0.95-1.28c0.45-1.17,0.49-2.38,0.49-2.49
				c0.03-0.7-0.05-1.11,0.24-1.61c0.17-0.26,0.48-0.63,0.73-0.55c0.21,0.05,0.3,0.42,0.38,0.91c0.22,1.11,0.31,1.66,0.29,2.18
				c-0.06,1.88,0.95,5.02,2.43,7.08c0.63,0.85,1.12,1.21,2.12,1.93c0.34,0.24,0.67,0.45,1.1,0.46c0.51,0.01,1.1-0.23,1.23-0.65
				c0.13-0.43-0.27-0.9-0.61-1.33c-0.17-0.25-0.61-1.24-1.46-3.19c-0.41-0.92-0.34-0.92-1.56-4.73c-0.82-2.54-0.96-2.85-0.72-3.2
				c0.17-0.25,0.5-0.38,1.03-0.44c0.86-0.09,2.24,0.01,4.25,0.18c0,0,1.57,0.13,4.23-0.11
				C323.19,294.75,323.79,294.68,323.91,294.34z M305.49,280.18c0.11-0.08-2.42-1.79-2.81-2.11c-0.25-0.2-2.54-2.58-2.78-2.08
				c-0.07,0.14-0.22,0.24-0.5,0.64l-2.81-0.84c0.53-0.31,0.86-0.61,0.86-1.06c0.02-0.38-0.22-0.71-1.2-1.62
				c-2.29-2.12-3.45-3.19-4.31-2.94c-0.8,0.21-0.77,1.19-1.59,3.35c-0.53,1.41-1.53,4.05-3.48,6.06c-2.1,2.18-4.04,2.26-4.01,3.6
				c0,0.73,0.76,1.42,2.28,2.8c1.27,1.18,2.14,1.95,2.9,1.73l2.9,0.66c-0.23,0.26-0.32,0.46-0.31,0.71
				c0.03,0.77,0.98,1.08,2.52,2.22c0.35,0.25,0.65,0.49,0.91,0.72c1.87,1.6,2.05,2.6,3.86,3.28c0.61,0.23,1.79,0.64,2.95,0.17
				c1.05-0.42,2.02-1.56,1.74-2.35c-0.15-0.4-0.55-0.59-1.03-0.8c-1.03-0.49-1.65-0.3-3.39-0.65c-0.76-0.16-1.16-0.3-1.37-0.44
				c-0.13-0.08-0.19-0.16-0.22-0.25c-0.13-0.36,0.15-0.75,0.32-1c1.05-1.55,0.67-2.2,1.5-3.55c0.5-0.84,0.87-0.94,3.17-2.67
				C304.15,281.84,304.95,280.6,305.49,280.18z"/>
			<polygon class="st5" points="338.99,116.87 335.4,136.37 316.4,135.88 295.95,136.41 			"/>
			<polygon class="st6" points="335.4,136.37 330.54,162.7 295.95,136.41 			"/>
			<polygon class="st4" points="335.4,136.37 295.95,136.41 316.4,135.88 			"/>
			<path class="st6" d="M330.54,162.7l-36.16,47.42c-0.08-0.05-0.17-0.11-0.26-0.2c-2.02-1.77-0.43-5.48-2.58-8.03
				c-0.74-0.87-0.96-0.44-4.75-2.39c-3.14-1.63-4.75-2.46-5.32-3.75c-0.75-1.65,0.23-2.5-0.77-4.43c-0.7-1.36-1.81-2.16-2.3-2.5
				c-1.48-1.03-2.17-0.75-4.14-1.68c-1.49-0.71-2.92-1.37-3.75-2.74c-1.08-1.77-0.1-2.96-1.02-5.31c-0.58-1.49-2.16-3.04-2.86-3.66
				l29.31-39.02L330.54,162.7z"/>
			<path class="st2" d="M322.32,292.53c1.11,0.95,1.68,1.44,1.58,1.81c-0.11,0.34-0.72,0.41-1.37,0.47
				c-2.66,0.24-4.23,0.11-4.23,0.11c-2.01-0.17-3.39-0.27-4.25-0.18l-0.3-1.62c0.84-0.12,1.77-0.46,4.37-1.53
				c1.07-0.43,1.41-0.57,1.93-0.5C320.72,291.18,321.25,291.63,322.32,292.53z"/>
			<path class="st2" d="M311.19,284.98c2.01-0.63,5.43,2.35,5.13,3.8c-0.09,0.44-0.55,0.83-0.97,1.18
				c-0.64,0.53-1.09,0.62-1.81,0.99c-1.05,0.54-2.44,1.54-2.28,1.99c0.16,0.43,1.66,0.28,2.15,0.24c0.12-0.01,0.24-0.02,0.35-0.05
				l0.3,1.62c-0.52,0.07-0.86,0.2-1.03,0.44c-0.24,0.35-0.1,0.67,0.72,3.2c1.22,3.81,1.15,3.81,1.56,4.73
				c0.86,1.95,1.29,2.94,1.46,3.19c0.34,0.44,0.74,0.9,0.61,1.33c-0.13,0.42-0.72,0.66-1.23,0.65c-0.43,0-0.77-0.21-1.1-0.46
				c-1-0.71-1.48-1.07-2.12-1.93c-1.48-2.06-2.49-5.2-2.43-7.08c0.02-0.51-0.08-1.06-0.29-2.18c-0.08-0.49-0.17-0.86-0.38-0.91
				c-0.25-0.08-0.56,0.29-0.73,0.55c-0.29,0.5-0.21,0.91-0.24,1.61c0,0.11-0.04,1.32-0.49,2.49c-0.25,0.62-0.48,1.21-0.95,1.28
				c-0.32,0.06-0.58-0.2-1.18-0.7c0,0-0.08-0.08-2.48-2.07c-1.27-1.05-1.55-1.14-1.63-1.53c-0.11-0.76,0.77-1.4,1.45-1.91
				c0,0,2.28-1.78,4.25-3.8C310.68,288.73,309.29,285.57,311.19,284.98z"/>
			<path class="st2" d="M302.67,278.07c0.39,0.32,2.92,2.03,2.81,2.11c-0.53,0.42-1.33,1.66-3.9,3.57c-2.3,1.73-2.66,1.84-3.17,2.67
				c-0.83,1.35-0.45,2-1.5,3.55c-0.17,0.25-0.45,0.64-0.32,1c0.04,0.09,0.09,0.17,0.22,0.25l-2.75,0.78
				c-0.26-0.23-0.57-0.47-0.91-0.72c-1.54-1.14-2.49-1.45-2.52-2.22c-0.02-0.25,0.07-0.45,0.31-0.71c0.23-0.27,0.61-0.58,1.19-1.03
				c2.69-2.12,3.02-2.12,3.67-2.84c0.56-0.63,0.47-0.79,1.76-4.04c0.91-2.28,1.47-3.31,1.83-3.82c0.27-0.4,0.42-0.5,0.5-0.64
				C300.13,275.5,302.42,277.87,302.67,278.07z"/>
			<path class="st2" d="M302.62,293.13c0.28,0.78-0.69,1.92-1.74,2.35c-1.16,0.47-2.33,0.05-2.95-0.17
				c-1.81-0.68-1.99-1.68-3.86-3.28l2.75-0.78c0.22,0.14,0.61,0.28,1.37,0.44c1.74,0.34,2.36,0.16,3.39,0.65
				C302.07,292.54,302.47,292.73,302.62,293.13z"/>
			<path class="st3" d="M299.4,276.63c-0.36,0.52-0.93,1.54-1.83,3.82c-1.29,3.24-1.2,3.4-1.76,4.04c-0.66,0.73-0.99,0.72-3.67,2.84
				c-0.57,0.45-0.95,0.76-1.19,1.03l-2.9-0.66c0.44-0.12,0.72-0.53,1.17-1.79c0.78-2.17,0.65-2.97,1.03-4.15
				c0.86-2.62,3.37-4.24,4.29-4.83c0.8-0.52,1.53-0.84,2.06-1.15L299.4,276.63z"/>
			<path class="st3" d="M256.5,194.36c0,0,0.01-0.01,0-0.02l0.3-0.59c0.01-0.01,0.02-0.02,0.02-0.03c0.2-0.33,0.37-0.67,0.51-1.02
				c0.03-0.03,0.04-0.06,0.05-0.1c0.04-0.08,0.07-0.17,0.11-0.26c0.08-0.19,0.14-0.38,0.2-0.59c0.04-0.12,0.08-0.24,0.09-0.36
				c0.27-1,0.32-2.04,0.16-3.07c0.01-0.42-0.02-0.82-0.08-1.22l8.78-11.67c0.7,0.61,2.28,2.17,2.86,3.66
				c0.92,2.35-0.06,3.54,1.02,5.31c0.83,1.37,2.26,2.04,3.75,2.74c1.97,0.94,2.66,0.65,4.14,1.68c0.49,0.34,1.6,1.13,2.3,2.5
				c1,1.93,0.02,2.78,0.77,4.43c0.58,1.29,2.18,2.13,5.32,3.75c3.79,1.95,4.01,1.52,4.75,2.39c2.15,2.55,0.55,6.26,2.58,8.03
				c0.09,0.09,0.19,0.15,0.26,0.2l-71.89,94.3c-0.25-0.31-0.35-0.62-0.44-0.85c-1.24-3.3-1.4-6.3-2.38-8.53
				c-0.95-2.2-2.55-3.44-5.16-5.31c-3.44-2.47-5.02-1.98-7.2-4.23c-3.34-3.42-3.4-8.4-3.4-8.77c0.01-3.15,1.34-4.11,0.7-6.44
				c-0.65-2.36-3.62-4.23-5.3-5.22l-0.01,0l29.06-38.71c8.58-6.95,18.03-14.85,23.96-24.38c0.06-0.07,0.12-0.13,0.16-0.21
				c0.58-0.76,1.08-1.58,1.51-2.44L256.5,194.36z"/>
			<path class="st2" d="M296.25,273.11c0.98,0.91,1.22,1.24,1.2,1.62c0,0.45-0.34,0.74-0.86,1.06s-1.25,0.63-2.06,1.15
				c-0.92,0.59-3.44,2.21-4.29,4.83c-0.38,1.18-0.25,1.98-1.03,4.15c-0.45,1.25-0.73,1.67-1.17,1.79c-0.76,0.22-1.63-0.55-2.9-1.73
				c-1.51-1.38-2.27-2.08-2.28-2.8c-0.03-1.34,1.9-1.42,4.01-3.6c1.95-2,2.95-4.65,3.48-6.06c0.81-2.16,0.78-3.14,1.59-3.35
				C292.8,269.93,293.96,271,296.25,273.11z"/>
			<path class="st2" d="M287.47,266.97c0.22,0.98-0.14,1.79-0.32,2.22c-0.72,1.62-1.17,2.62-1.42,3.19
				c-0.01,0.03-0.03,0.07-0.04,0.11c-0.08,0.19-0.13,0.3-0.16,0.36c-0.35,0.77-0.81,1.75-1.37,2.99c-0.74,1.62-1.86,3.04-2.44,4.74
				c-0.1,0.31-0.39,1.19-1.09,1.38c-0.34,0.09-0.66,0.01-1.13-0.21c-0.95-0.44-2.65-1.21-2.89-2.51c-0.08-0.45,0.04-0.85,0.97-2.28
				c1.7-2.62,2.75-3.58,3.74-5.5c0.88-1.72,0.89-1.87,0.83-1.95c-0.35-0.32-2.16,0.98-3.07,1.64c-1.34,0.96-2.23,1.78-4.31,3.35
				c-1.1,0.83-1.81,1.33-2.74,1.22c-0.85-0.11-1.57-0.68-1.66-0.76c0,0-0.59-0.48-0.94-1.19c-1.12-2.24,3.39-9.94,2.92-10.31
				c-0.22-0.17-1.69,1.04-2.93,2.97c-1.93,2.97-1.75,5.18-3.16,5.51c-0.9,0.2-1.84-0.49-2.61-1.05c-0.26-0.18-1.92-1.41-2.23-2.89
				c-0.38-1.74,1.33-2.75,9.71-9.46c1.49-1.21,3.03-2.44,4-1.91c0.67,0.36,0.76,1.4,0.85,2.81c0.31,4.48-1.37,8.17-1.55,8.57
				c-0.78,1.7-1.43,2.42-1.17,2.7c0.48,0.47,2.97-1.7,6.95-3.54c3.54-1.66,4.91-2.77,6.05-2.11
				C286.88,265.47,287.32,266.31,287.47,266.97z"/>
			<path class="st3" d="M286.68,270.34C286.73,270.25,286.72,270.27,286.68,270.34L286.68,270.34z"/>
			<path class="st3" d="M285.72,272.38c0.59-1.26,0.86-1.85,0.96-2.04c-0.15,0.37-1.07,2.38-1.21,2.65c0-0.03,0.02-0.07,0.04-0.13
				c0.04-0.06,0.08-0.18,0.16-0.36C285.7,272.45,285.72,272.41,285.72,272.38z"/>
			<path class="st2" d="M287.92,353.99l-7.14,9.38l-0.12-0.09c-6.76,1.14-12.92,6.46-14.06,13.46c-0.26,1.59-0.2,3.05,0.05,4.43
				l-1.06,1.36l-72.24-39.87l29.14-38.23c0.15,0.17,0.33,0.35,0.61,0.53c1.03,0.65,2.43,0.58,2.79,0.51c3-0.61,9.79,1.63,13.66,4.92
				c3.85,3.26,2.44,5.55,6.35,8.17c0.71,0.47,1.35,0.8,7.7,2.58c8.45,2.37,8.91,2.24,10.23,3.24c3.18,2.38,2,4.24,5.84,8.67
				c1.13,1.28,3.9,4.49,8.36,6.37c0.35,0.15,0.69,0.27,1.02,0.39l0.01,0.01c-0.48,0.86-0.81,1.78-0.98,2.72
				c-0.99,2.78,0.25,6.08,2.45,8.36c0.03,0.03,0.07,0.07,0.1,0.1c0.44,0.5,0.96,0.97,1.54,1.44c1.75,1.41,3.73,1.81,5.62,1.54
				C287.83,353.98,287.88,353.99,287.92,353.99z"/>
			<path class="st3" d="M257.49,192.34c0.08-0.2,0.14-0.39,0.2-0.59C257.63,191.96,257.57,192.15,257.49,192.34z"/>
			<path class="st3" d="M257.38,192.6c0.05-0.08,0.08-0.16,0.11-0.26C257.45,192.42,257.42,192.51,257.38,192.6z"/>
			<path class="st3" d="M256.81,193.75l-0.3,0.59c0.03-0.06,0.04-0.13,0.06-0.2C256.65,194.02,256.73,193.89,256.81,193.75z"/>
			<path class="st6" d="M222.49,304.43l-29.14,38.23l-21.01-41.72l26.95-35.86l0.01,0c1.69,0.99,4.66,2.86,5.3,5.22
				c0.64,2.32-0.69,3.28-0.7,6.44c0,0.37,0.06,5.34,3.4,8.77c2.18,2.25,3.76,1.76,7.2,4.23c2.61,1.87,4.22,3.12,5.16,5.31
				c0.98,2.24,1.14,5.23,2.38,8.53C222.14,303.81,222.25,304.11,222.49,304.43z"/>
		</g>
		<g>
			<polygon class="st7" points="335.4,136.37 295.95,136.41 316.4,135.88 			"/>
			<line class="st7" x1="199.3" y1="265.07" x2="199.29" y2="265.07"/>
			<polyline class="st7" points="347.55,106.04 409.4,154.86 402.16,165.38 397.31,214.17 330.54,162.7 335.4,136.37 338.99,116.87 
				339.65,116.03 347.32,106.32 			"/>
			<polyline class="st7" points="257.86,187.1 266.64,175.43 295.95,136.41 338.99,116.87 			"/>
			<polyline class="st7" points="267.61,379.93 266.65,381.16 265.59,382.52 193.35,342.65 172.34,300.94 199.29,265.07 
				228.35,226.37 			"/>
			<polyline class="st7" points="287.92,353.99 280.77,363.37 280.24,364.06 			"/>
			<line class="st7" x1="311.27" y1="324.13" x2="308.5" y2="327.68"/>
			<polyline class="st7" points="397.31,214.17 365.74,254.51 324.77,306.87 			"/>
			<polyline class="st7" points="193.35,342.65 222.49,304.43 294.38,210.12 330.54,162.7 295.95,136.41 			"/>
			<line class="st7" x1="402.16" y1="165.38" x2="390.85" y2="156.46"/>
			<line class="st7" x1="374.96" y1="143.91" x2="339.65" y2="116.03"/>
			<path class="st7" d="M393.75,168.46c0.01,0.26,0,0.51,0,0.76"/>
			<path class="st7" d="M389.86,154.65c0.15,0.26,0.3,0.53,0.44,0.79"/>
			<path class="st7" d="M388.36,152.41c0.14,0.18,0.27,0.36,0.4,0.56"/>
			<path class="st7" d="M374.96,143.91c0.83,0.06,1.65,0.19,2.46,0.42c0.13,0.02,0.26,0.05,0.38,0.1c0.15,0.03,0.28,0.07,0.42,0.12
				c0.15,0.05,0.28,0.09,0.43,0.15c0.82,0.28,1.62,0.62,2.38,1.03c0.28,0.14,0.54,0.29,0.8,0.45c0.05,0.03,0.11,0.06,0.15,0.1
				c0.12,0.07,0.24,0.14,0.33,0.21c0.38,0.24,0.75,0.51,1.08,0.77c0.26,0.21,0.51,0.42,0.76,0.63c0.19,0.16,0.37,0.31,0.55,0.48
				c0.13,0.12,0.27,0.24,0.41,0.37c0.16,0.15,0.33,0.31,0.51,0.48c0.23,0.22,0.45,0.45,0.69,0.7c0.44,0.49,0.88,0.97,1.29,1.48
				c0.07,0.08,0.13,0.17,0.19,0.26c0.2,0.23,0.39,0.49,0.57,0.74c0.13,0.17,0.27,0.36,0.4,0.56c0.2,0.26,0.37,0.53,0.55,0.8
				c0.16,0.24,0.32,0.5,0.46,0.73c0.03,0.05,0.06,0.1,0.09,0.15c0.16,0.25,0.31,0.52,0.44,0.79c0.2,0.32,0.38,0.68,0.55,1.02"/>
			<path class="st7" d="M390.85,156.46c0.21,0.43,0.42,0.86,0.61,1.31c0.12,0.25,0.23,0.51,0.32,0.77c0.5,1.2,0.9,2.44,1.21,3.7
				c0.07,0.28,0.13,0.54,0.19,0.81c0.02,0.08,0.03,0.15,0.05,0.23c0.06,0.28,0.12,0.56,0.16,0.87c0.08,0.42,0.14,0.85,0.18,1.28
				c0.05,0.32,0.08,0.64,0.1,0.95c0.02,0.19,0.04,0.39,0.04,0.56c0.03,0.3,0.04,0.58,0.04,0.87c0.01,0.22,0.01,0.44,0,0.65
				c0.02,0.27,0.01,0.51,0,0.76c-0.01,0.66-0.05,1.31-0.13,1.97c-0.03,0.23-0.05,0.44-0.08,0.66c-0.14,1-0.35,2-0.62,3
				c-0.4,1.42-1.05,2.63-1.93,3.6c-3.12,3.41-9.02,3.63-15.5-1.48c-8.3-6.56-14.62-21.15-9.52-28.94c0.54-0.82,1.14-1.5,1.81-2.05
				c0.16-0.14,0.32-0.26,0.48-0.38c0.62-0.45,1.27-0.8,1.96-1.06c0.1-0.03,0.2-0.07,0.3-0.11c0.12-0.04,0.24-0.07,0.36-0.12
				c0.18-0.06,0.37-0.11,0.56-0.15c0.41-0.1,0.81-0.16,1.23-0.22c0.18-0.02,0.38-0.04,0.57-0.05c0.11,0,0.22-0.01,0.33-0.01
				c0.27-0.01,0.53-0.01,0.81,0c0.2,0.01,0.39,0.02,0.59,0.03"/>
			<path class="st7" d="M373.23,143.89c-3.76-1.77-14.59,4.25-14.59,4.25c-12.4,11.05,2.86,39.01,17.22,38.39
				c0,0,14.34-3.9,15.12-8.1"/>
			<path class="st7" d="M199.3,265.07c1.69,0.99,4.66,2.86,5.3,5.22c0.64,2.32-0.69,3.28-0.7,6.44c0,0.37,0.06,5.34,3.4,8.77
				c2.18,2.25,3.76,1.76,7.2,4.23c2.61,1.87,4.22,3.12,5.16,5.31c0.98,2.24,1.14,5.23,2.38,8.53c0.09,0.23,0.19,0.54,0.44,0.85
				c0.15,0.17,0.33,0.35,0.61,0.53c1.03,0.65,2.43,0.58,2.79,0.51c3-0.61,9.79,1.63,13.66,4.92c3.85,3.26,2.44,5.55,6.35,8.17
				c0.71,0.47,1.35,0.8,7.7,2.58c8.45,2.37,8.91,2.24,10.23,3.24c3.18,2.38,2,4.24,5.84,8.67c1.13,1.28,3.9,4.49,8.36,6.37
				c0.35,0.15,0.69,0.27,1.02,0.39"/>
			<path class="st7" d="M266.64,175.43c0.7,0.61,2.28,2.17,2.86,3.66c0.92,2.35-0.06,3.54,1.02,5.31c0.83,1.37,2.26,2.04,3.75,2.74
				c1.97,0.94,2.66,0.65,4.14,1.68c0.49,0.34,1.6,1.13,2.3,2.5c1,1.93,0.02,2.78,0.77,4.43c0.58,1.29,2.18,2.13,5.32,3.75
				c3.79,1.95,4.01,1.52,4.75,2.39c2.15,2.55,0.55,6.26,2.58,8.03c0.09,0.09,0.19,0.15,0.26,0.2c0.66,0.41,0.93-0.17,3.29,0.22
				c2.57,0.43,6.5,1.08,8.14,3.5c1.24,1.82-0.05,2.8,1.02,7.11c0.62,2.51,1.1,4.42,2.56,5.17c1.77,0.93,3.1-0.82,7.67-1.61
				c2.75-0.47,5.25-0.89,7.44,0.48c2.4,1.47,3.63,4.58,3.37,7.15c-0.26,2.54-1.92,4.09-3.95,5.9c-3.09,2.76-4.6,2.49-9.43,5.64
				c-3.41,2.23-5.14,3.38-6.17,5.72c-0.39,0.84-1.73,3.86-0.16,7.08c0.11,0.22,1.87,3.7,5.55,4.39c3.12,0.58,5.44-1.24,6.8-2.29
				c2.48-1.95,3.48-4.4,3.97-5.65c1.85-4.68,0.03-6.45,1.94-9.96c0.29-0.51,2.59-4.61,6.21-4.56c2.5,0.03,4.5,2.02,5.34,2.85
				c2.41,2.4,1.78,3.91,3.91,5.57c1.48,1.16,3,1.36,5.95,1.76c4.92,0.68,5.36-0.63,7.96,0.43c2.16,0.87,2.39,1.98,5.99,3.82
				c1.3,0.67,3.2,1.4,3.95,1.67"/>
			<path class="st7" d="M257.78,191.39c0.27-1,0.32-2.04,0.16-3.07"/>
			<path class="st7" d="M257.38,192.6c0.05-0.08,0.08-0.16,0.11-0.26c0.08-0.2,0.14-0.39,0.2-0.59"/>
			<path class="st7" d="M256.82,193.72c0.2-0.33,0.37-0.67,0.51-1.02"/>
			<path class="st7" d="M256.56,194.14c0.09-0.12,0.17-0.26,0.24-0.39"/>
			<path class="st7" d="M256.5,194.34c0.03-0.06,0.04-0.13,0.06-0.2"/>
			<path class="st7" d="M253.5,200.28c1.28-1.75,2.44-3.79,3-5.93"/>
			<path class="st7" d="M287.79,353.98c0.04,0,0.08,0.01,0.12,0.01"/>
			<path class="st7" d="M281.32,337.08c-0.92,0.76-1.69,1.7-2.25,2.74c-0.48,0.86-0.81,1.78-0.98,2.72
				c-0.99,2.78,0.25,6.08,2.45,8.36"/>
			<path class="st7" d="M308.5,327.68c-0.13,0.03-0.27,0.07-0.41,0.1"/>
			<path class="st7" d="M280.54,350.9c0.03,0.03,0.07,0.07,0.1,0.1c0.44,0.5,0.96,0.97,1.54,1.44c1.75,1.41,3.73,1.81,5.62,1.54"/>
			<path class="st7" d="M308.09,327.78c-5.84-0.55-12.3,1.75-17.55,3.86c-1.86,0.75-3.97,1.74-5.92,2.99
				c-1.24,0.66-2.35,1.5-3.3,2.45"/>
			<path class="st7" d="M280.65,363.28c-6.76,1.14-12.92,6.46-14.06,13.46c-0.26,1.59-0.2,3.05,0.05,4.43"/>
			<path class="st7" d="M324.77,306.87c-0.94,0.02-1.89,0.2-2.83,0.55c-6.31,2.32-12.19,9.81-10.68,16.72"/>
			<path class="st7" d="M257.94,188.32c0.01-0.42-0.02-0.82-0.08-1.22"/>
			<path class="st7" d="M228.35,226.37c8.58-6.95,18.03-14.85,23.96-24.38c0.06-0.07,0.12-0.13,0.16-0.21
				c0.58-0.76,1.08-1.58,1.51-2.44l2.53-4.99c0,0,0.01-0.01,0-0.02l0.3-0.59c0.01-0.01,0.02-0.02,0.02-0.03l0.46-0.92
				c0.02-0.03,0.04-0.07,0.06-0.1c0.03-0.03,0.04-0.06,0.05-0.1c0.04-0.08,0.07-0.17,0.11-0.26c0.08-0.19,0.14-0.38,0.2-0.59
				c0.04-0.12,0.08-0.24,0.09-0.36c0.18-0.89,0.14-1.82-0.12-2.71l0.2-1.58L228.35,226.37z"/>
		</g>
	</g>
	<line class="st7" x1="307.36" y1="328.47" x2="312.64" y2="321.55"/>
	<path class="st7" d="M324.87,306.74c0,0-0.75,1.02-0.78,1.03"/>
</g>
</svg>
